<?xml version="1.0" standalone="no"?>
<!DOCTYPE svg PUBLIC "-//W3C//DTD SVG 20010904//EN"
 "http://www.w3.org/TR/2001/REC-SVG-20010904/DTD/svg10.dtd">
<svg version="1.0" xmlns="http://www.w3.org/2000/svg"
 width="489.000000pt" height="489.000000pt" viewBox="0 0 489.000000 489.000000"
 preserveAspectRatio="xMidYMid meet">
<metadata>
Created by potrace 1.11, written by Peter Selinger 2001-2013
</metadata>
<g transform="translate(0.000000,489.000000) scale(0.100000,-0.100000)"
fill="#000000" stroke="none">
<path d="M2331 4335 l-44 -105 -126 -2 c-69 0 -134 -1 -143 0 -37 3 -15 -15
92 -76 61 -35 110 -68 110 -74 0 -5 -18 -53 -40 -105 -22 -53 -38 -98 -35
-101 2 -3 36 14 74 37 38 22 73 41 78 40 4 -1 30 -25 56 -54 l49 -54 -38 -19
c-34 -18 -41 -18 -72 -5 -72 30 -167 1 -133 -41 15 -17 109 -21 146 -7 19 8
66 -10 123 -47 23 -15 22 -15 -43 -38 l-66 -23 -45 19 c-80 35 -174 21 -174
-24 0 -36 91 -56 169 -38 40 10 48 8 107 -25 35 -19 66 -38 69 -43 3 -4 -29
-20 -70 -33 l-75 -26 -66 31 c-53 25 -74 30 -115 26 -28 -3 -58 -13 -69 -23
-22 -20 -26 -55 -8 -73 14 -14 173 -16 230 -3 34 8 42 5 124 -50 56 -37 83
-60 73 -64 -8 -2 -51 -16 -96 -29 l-81 -24 -83 35 c-69 30 -96 36 -155 37 -86
1 -117 -18 -112 -68 4 -45 60 -59 208 -52 63 3 123 7 132 8 19 3 220 -134 210
-143 -4 -4 -63 -25 -131 -47 l-124 -40 -91 44 c-160 77 -266 91 -341 44 -30
-19 -55 -56 -55 -84 0 -7 10 -22 23 -34 45 -42 221 -51 403 -21 l61 11 163
-101 162 -100 -104 -31 c-56 -17 -116 -35 -132 -41 -47 -15 -66 -11 -164 32
-132 58 -214 79 -302 79 -121 -1 -184 -32 -196 -98 -14 -74 64 -102 283 -102
75 0 176 5 224 11 l86 11 119 -69 c66 -39 155 -90 198 -113 65 -36 76 -45 60
-51 -10 -4 -100 -30 -198 -57 l-180 -49 -111 53 c-221 107 -360 135 -495 100
-102 -26 -142 -63 -142 -132 0 -67 57 -105 188 -123 137 -20 291 -11 480 25
l81 16 114 -65 c118 -67 342 -197 347 -201 1 -2 -110 -40 -248 -86 l-250 -83
-119 56 c-220 103 -372 147 -509 147 -185 -1 -322 -75 -322 -176 0 -49 49
-100 113 -119 136 -40 483 -37 732 6 l121 21 125 -67 c111 -61 441 -245 446
-249 3 -3 -410 -133 -529 -166 l-96 -28 -154 68 c-285 127 -448 172 -623 174
-133 1 -218 -16 -287 -58 -60 -36 -88 -82 -88 -145 0 -37 5 -49 35 -77 112
-106 544 -133 1007 -63 l137 21 222 -113 c200 -103 219 -114 193 -121 -31 -7
-468 -76 -724 -113 -209 -31 -456 -49 -565 -41 -88 7 -361 42 -400 52 -16 4
-17 3 -5 -4 24 -15 370 -90 472 -103 155 -19 508 15 947 91 63 11 117 17 120
15 2 -3 15 -58 28 -122 17 -85 26 -168 30 -297 3 -102 9 -172 14 -164 14 25
39 187 39 253 0 76 -24 210 -51 279 -10 28 -19 54 -19 57 0 3 60 13 133 23
l132 17 126 -60 c237 -113 430 -185 578 -216 164 -34 369 -27 451 15 94 48
105 146 27 228 -64 68 -189 113 -370 134 -109 12 -511 3 -697 -16 l-125 -13
-235 120 -235 121 50 13 c28 7 166 51 308 97 l258 85 157 -77 c307 -151 508
-198 666 -157 107 28 159 84 158 170 -1 85 -44 145 -132 184 -77 34 -170 44
-349 38 -169 -5 -286 -22 -446 -62 l-89 -22 -283 156 c-155 86 -282 159 -282
162 -1 4 26 14 60 23 33 10 142 46 242 81 l181 64 155 -77 c213 -106 301 -135
416 -136 170 -1 257 57 242 164 -7 58 -41 105 -92 130 -103 50 -350 50 -612
-1 l-112 -21 -178 105 c-98 57 -200 117 -226 132 -27 15 -45 31 -40 36 4 4 44
17 88 28 44 11 126 36 182 55 l103 35 102 -49 c166 -77 257 -103 368 -104 110
0 160 18 191 68 22 35 18 93 -9 134 -55 83 -244 93 -538 27 -92 -21 -108 -23
-127 -10 -12 7 -102 58 -200 114 l-179 100 44 11 c23 7 89 27 145 45 l103 33
62 -33 c35 -19 99 -46 143 -60 69 -23 92 -27 168 -23 79 4 90 7 115 31 29 30
35 84 12 126 -37 70 -231 88 -412 38 l-97 -26 -161 96 -161 97 131 40 131 40
37 -23 c131 -79 239 -107 316 -81 94 31 87 148 -11 181 -46 15 -216 6 -292
-15 l-54 -15 -108 72 -108 71 95 29 95 29 70 -32 c133 -61 250 -47 257 31 2
26 -3 40 -19 54 -31 29 -152 32 -241 7 l-68 -19 -89 56 -90 56 79 29 80 28 64
-27 c70 -30 136 -36 161 -15 19 16 19 64 0 80 -23 19 -87 23 -159 11 l-66 -12
-70 38 c-38 21 -70 40 -70 43 0 3 29 16 66 27 l65 22 51 -27 c75 -39 148 -30
148 19 0 9 -8 25 -17 35 -14 14 -31 16 -107 11 -86 -4 -92 -3 -147 27 -32 17
-59 34 -59 37 0 3 14 12 32 21 30 14 34 13 66 -9 40 -27 93 -30 116 -7 19 19
20 25 3 48 -10 14 -27 18 -64 18 -27 0 -59 -3 -70 -6 -15 -5 -32 7 -73 50 -51
53 -53 57 -35 70 10 8 26 14 34 14 9 0 64 -29 124 -65 59 -35 107 -61 107 -57
0 4 -18 54 -40 111 -23 57 -39 105 -38 106 2 2 57 34 122 71 l120 69 -151 3
-150 3 -38 97 c-21 53 -41 100 -45 105 -3 4 -26 -40 -49 -98z m77 -34 c12 -29
22 -58 22 -62 0 -5 -25 -9 -55 -9 -30 0 -55 2 -55 5 0 18 54 135 60 128 3 -4
16 -32 28 -62z m-138 -106 c0 -10 -32 -85 -37 -85 -7 0 -143 82 -143 86 0 2
41 4 90 4 50 0 90 -2 90 -5z m180 0 c0 -2 9 -26 19 -53 l19 -48 -55 -33 c-54
-33 -55 -33 -91 -17 -21 9 -47 25 -60 34 l-23 18 22 52 22 52 73 0 c41 0 74
-2 74 -5z m209 1 c-8 -8 -140 -86 -144 -86 -6 0 -35 68 -35 81 0 5 41 9 92 9
50 0 89 -2 87 -4z m-319 -185 c0 -4 -10 -13 -22 -19 -13 -6 -47 -25 -76 -42
-61 -36 -61 -36 -16 65 l23 54 46 -25 c25 -14 45 -29 45 -33z m185 -14 c14
-37 25 -70 25 -73 0 -5 -23 8 -114 64 l-39 24 49 28 c27 16 50 28 51 26 1 -1
14 -32 28 -69z m33 -156 c8 -5 12 -17 10 -27 -5 -28 -52 -29 -95 -3 -37 23
-37 23 -13 30 36 10 83 10 98 0z m-271 -45 c11 -11 -5 -18 -49 -23 -47 -4 -75
8 -63 27 8 13 99 10 112 -4z m357 -86 c34 -12 35 -47 2 -56 -22 -5 -132 33
-123 43 2 2 24 7 48 12 24 5 45 9 46 10 1 1 13 -3 27 -9z m-376 -54 c10 -11
-6 -17 -60 -23 -64 -6 -107 9 -88 32 6 8 21 15 33 17 22 4 104 -15 115 -26z
m446 -112 c21 -21 20 -41 -3 -54 -30 -16 -51 -12 -116 19 l-60 28 40 8 c22 3
45 8 50 10 27 9 75 3 89 -11z m-491 -39 c33 -15 36 -20 22 -28 -9 -5 -56 -10
-103 -11 -81 -1 -87 0 -90 20 -6 45 94 56 171 19z m584 -167 c35 -28 -8 -68
-74 -68 -39 0 -169 47 -159 58 3 3 29 11 58 18 57 14 153 10 175 -8z m-615
-35 c61 -27 62 -28 33 -34 -17 -4 -75 -7 -131 -8 -112 -1 -149 12 -128 46 25
41 130 40 226 -4z m693 -207 c42 -18 57 -59 31 -84 -13 -13 -35 -17 -89 -17
-63 0 -81 5 -150 39 -43 21 -75 41 -72 44 10 10 136 30 193 31 29 1 68 -5 87
-13z m-894 -12 c72 -21 190 -75 184 -84 -9 -15 -177 -32 -259 -28 -130 8 -168
40 -110 93 40 37 101 44 185 19z m1068 -311 c16 -13 27 -31 29 -52 3 -28 -1
-33 -32 -46 -44 -19 -115 -19 -183 -1 -62 17 -196 77 -188 85 3 3 43 13 88 23
109 24 247 19 286 -9z m-1098 -9 c30 -9 92 -32 138 -52 76 -32 82 -36 60 -45
-13 -5 -103 -12 -199 -14 -204 -6 -253 4 -258 49 -7 63 137 98 259 62z m1339
-326 c36 -18 48 -32 59 -64 54 -157 -205 -168 -494 -21 -68 34 -69 36 -44 45
74 29 250 61 339 61 80 1 103 -3 140 -21z m-1369 -59 c36 -11 106 -40 155 -63
l89 -43 -75 -12 c-178 -30 -428 -24 -506 11 -29 14 -42 52 -23 74 52 63 217
78 360 33z m1531 -401 c110 -33 144 -157 56 -205 -51 -28 -221 -25 -313 5 -95
31 -339 152 -328 162 12 13 163 41 266 50 113 10 264 5 319 -12z m-1704 -48
c79 -19 259 -87 340 -129 42 -22 46 -19 -58 -40 -177 -36 -567 -41 -645 -7
-74 32 -92 67 -59 114 18 26 78 59 131 71 69 16 203 12 291 -9z m1896 -471
c73 -12 143 -46 168 -80 28 -37 34 -99 14 -137 -9 -18 -35 -42 -59 -54 -37
-20 -56 -23 -167 -23 -121 0 -129 1 -245 41 -142 49 -389 164 -378 175 13 13
193 58 290 73 108 17 295 20 377 5z m-2086 -65 c154 -32 530 -178 501 -195 -8
-4 -70 -17 -139 -29 -174 -31 -505 -39 -639 -16 -147 26 -211 61 -211 115 0
56 58 103 155 127 72 18 242 17 333 -2z m2142 -529 c97 -23 149 -46 194 -85
30 -27 36 -39 36 -71 0 -68 -57 -89 -246 -89 -140 -1 -227 15 -394 70 -122 40
-400 159 -400 171 0 4 53 10 118 13 64 4 128 9 142 11 14 2 126 2 250 1 174
-2 242 -7 300 -21z"/>
</g>
</svg>
